<?xml version="1.0" encoding="UTF-8" standalone="no"?>
<svg
   xmlns:dc="http://purl.org/dc/elements/1.1/"
   xmlns:cc="http://creativecommons.org/ns#"
   xmlns:rdf="http://www.w3.org/1999/02/22-rdf-syntax-ns#"
   xmlns:svg="http://www.w3.org/2000/svg"
   xmlns="http://www.w3.org/2000/svg"
   xmlns:sodipodi="http://sodipodi.sourceforge.net/DTD/sodipodi-0.dtd"
   xmlns:inkscape="http://www.inkscape.org/namespaces/inkscape"
   width="210mm"
   height="297mm"
   viewBox="0 0 210 297"
   version="1.1"
   id="svg487"
   inkscape:version="1.0.2 (e86c870879, 2021-01-15)"
   sodipodi:docname="catoosa_logo.svg">
  <defs
     id="defs481" />
  <sodipodi:namedview
     id="base"
     pagecolor="#ffffff"
     bordercolor="#666666"
     borderopacity="1.0"
     inkscape:pageopacity="0.0"
     inkscape:pageshadow="2"
     inkscape:zoom="0.7"
     inkscape:cx="255.99076"
     inkscape:cy="533.46943"
     inkscape:document-units="mm"
     inkscape:current-layer="layer1"
     inkscape:document-rotation="0"
     showgrid="false"
     inkscape:window-width="1458"
     inkscape:window-height="1016"
     inkscape:window-x="158"
     inkscape:window-y="79"
     inkscape:window-maximized="0" />
  <metadata
     id="metadata484">
    <rdf:RDF>
      <cc:Work
         rdf:about="">
        <dc:format>image/svg+xml</dc:format>
        <dc:type
           rdf:resource="http://purl.org/dc/dcmitype/StillImage" />
        <dc:title></dc:title>
      </cc:Work>
    </rdf:RDF>
  </metadata>
  <g
     inkscape:label="Layer 1"
     inkscape:groupmode="layer"
     id="layer1">
    <ellipse
       style="fill:#ffffff;fill-opacity:1;stroke:#518830;stroke-width:0.316762"
       id="path865"
       cx="104.65726"
       cy="149.0078"
       rx="99.20446"
       ry="99.576164" />
    <path
       style="fill:#094086;stroke-width:0.106287;fill-opacity:1"
       d="m 162.53731,133.48793 c 0.11547,-0.0731 0.0986,-0.10835 -0.0787,-0.16466 -0.12411,-0.0394 -0.28587,-0.037 -0.35948,0.005 -0.0736,0.0424 -0.0981,0.0377 -0.0545,-0.0105 0.10628,-0.11722 -0.54458,-0.50573 -0.72881,-0.43503 -0.0798,0.0306 -0.13374,-0.003 -0.11983,-0.0734 0.0139,-0.071 -0.0566,-0.12271 -0.15654,-0.11496 -0.1,0.008 -0.17174,-0.0401 -0.15942,-0.10628 0.0123,-0.0662 -0.0827,-0.1218 -0.21108,-0.12355 -0.12841,-0.002 -0.27189,-0.0453 -0.31885,-0.0968 -0.0471,-0.0517 -0.0291,-0.0614 0.0402,-0.0216 0.069,0.0396 0.15557,0.0233 0.19227,-0.0362 0.0367,-0.0594 0.02,-0.10802 -0.0371,-0.10802 -0.0571,0 -0.18737,-0.0321 -0.28944,-0.0712 -0.13647,-0.0524 -0.16253,-0.0339 -0.0985,0.0696 0.0583,0.0944 0.046,0.11543 -0.0375,0.0639 -0.0684,-0.0423 -0.10027,-0.116 -0.0707,-0.16379 0.0825,-0.13346 -0.23996,-0.35508 -0.41748,-0.28695 -0.0866,0.0332 -0.19023,0.007 -0.23035,-0.0577 -0.0442,-0.0715 -0.0245,-0.0882 0.0497,-0.0422 0.0675,0.0417 0.1227,0.0252 0.1227,-0.0367 0,-0.0619 -0.0454,-0.11255 -0.10096,-0.11255 -0.12196,0 -1.0294,-0.58992 -1.35507,-0.88091 -0.12855,-0.11488 -0.30441,-0.18173 -0.3908,-0.14859 -0.0864,0.0331 -0.22036,-0.0206 -0.29769,-0.1194 -0.12908,-0.16492 -0.12314,-0.16674 0.072,-0.0221 0.21118,0.15656 0.21123,0.15602 0.006,-0.0835 -0.11322,-0.13258 -0.26808,-0.21718 -0.34415,-0.18799 -0.0761,0.0292 -0.1269,-0.005 -0.11299,-0.076 0.0139,-0.071 -0.0579,-0.12247 -0.15956,-0.11445 -0.10167,0.008 -0.16187,-0.0226 -0.13376,-0.068 0.0761,-0.12317 -0.46539,-0.44545 -0.60424,-0.35964 -0.0707,0.0437 -0.0903,0.0264 -0.0479,-0.0423 0.0883,-0.14279 -1.06751,-0.78731 -1.73958,-0.9701 -0.26307,-0.0715 -0.62517,-0.17465 -0.80469,-0.22916 -0.17952,-0.0545 -0.42506,-0.0991 -0.54562,-0.0991 -0.22244,0 -0.39695,-0.42617 -0.24801,-0.60567 0.0389,-0.0469 0.15142,-0.35271 0.2501,-0.67966 0.28101,-0.93107 1.5797,-2.97901 2.34512,-3.69808 l 0.26283,-0.24692 0.56585,0.18766 c 1.35795,0.45035 2.63545,1.43969 3.47435,2.69066 0.45715,0.68172 1.24407,2.27437 1.66311,3.36599 0.15617,0.40686 0.32418,0.83542 0.37334,0.95233 0.081,0.19259 0.29789,0.8037 0.94142,2.65237 0.21826,0.62697 0.18668,0.79868 -0.1469,0.79868 -0.0584,0 -0.0402,-0.0419 0.0406,-0.093 z"
       id="path434" />
    <path
       style="fill:#094086;stroke-width:0.106287;fill-opacity:1"
       d="m 117.23511,160.0761 c 0.0822,-0.58352 0.23742,-1.04575 0.65121,-1.93973 0.20294,-0.43843 0.52244,-1.13195 0.70999,-1.54115 0.47311,-1.03221 0.7617,-1.22072 1.54565,-1.00961 0.5367,0.14452 0.84991,0.44255 0.84991,0.80873 0,0.5022 -0.66073,1.54967 -1.52115,2.41151 -0.72919,0.73043 -1.97117,1.66883 -2.20867,1.66883 -0.0457,0 -0.0578,-0.17936 -0.0269,-0.39858 z"
       id="path426" />
    <path
       style="fill:#094086;stroke-width:0.106287;fill-opacity:1"
       d="m 177.53621,216.30757 c -0.96922,-0.0571 -1.01571,-0.0835 -1.27451,-0.72109 -0.13707,-0.3377 -0.28412,-0.55575 -0.34811,-0.5162 -0.0609,0.0377 -0.0797,0.0182 -0.0418,-0.0433 0.0884,-0.14295 -0.18375,-0.80102 -0.28806,-0.69671 -0.043,0.043 -0.0436,-0.0118 -8.9e-4,-0.12195 0.0575,-0.15005 0.0415,-0.1784 -0.064,-0.11319 -0.0918,0.0567 -0.11533,0.0459 -0.0676,-0.0314 0.0746,-0.12081 -0.11414,-0.54241 -0.30604,-0.68341 -0.0584,-0.0429 -0.073,-0.0788 -0.0324,-0.0797 0.11715,-0.003 -0.4495,-1.21486 -0.61066,-1.30644 -0.0799,-0.0454 -0.12058,-0.14684 -0.0904,-0.22544 0.0301,-0.0786 -0.0227,-0.17265 -0.11744,-0.209 -0.0948,-0.0363 -0.14224,-0.11471 -0.10553,-0.17411 0.0943,-0.15266 -0.0477,-0.54721 -0.16984,-0.47172 -0.0558,0.0345 -0.0944,0.0232 -0.086,-0.025 0.0423,-0.24367 -0.0224,-0.46442 -0.11886,-0.40484 -0.0599,0.037 -0.10208,0.0279 -0.0937,-0.0203 0.0455,-0.2621 -0.0223,-0.46457 -0.13266,-0.39632 -0.0784,0.0485 -0.0938,0.029 -0.0425,-0.054 0.0468,-0.0756 -0.002,-0.19663 -0.11643,-0.29001 -0.10815,-0.0882 -0.13685,-0.12996 -0.0638,-0.093 0.16844,0.0853 0.16681,0.0382 -0.0105,-0.30349 -0.0788,-0.15193 -0.17701,-0.24257 -0.21819,-0.20138 -0.0412,0.0412 -0.0403,-0.0152 0.002,-0.12534 0.0531,-0.13839 0.0387,-0.17669 -0.0463,-0.1241 -0.083,0.0513 -0.10031,0.0167 -0.0532,-0.10629 0.0512,-0.13354 0.0322,-0.15908 -0.0708,-0.0954 -0.0894,0.0552 -0.11527,0.0457 -0.0709,-0.0261 0.0991,-0.16038 -0.037,-0.46376 -0.17092,-0.38098 -0.068,0.042 -0.0797,0.0174 -0.03,-0.063 0.0973,-0.15742 -0.25129,-0.98248 -0.38118,-0.9022 -0.0497,0.0306 -0.0617,-0.0184 -0.0269,-0.10919 0.0348,-0.0907 0.0102,-0.16495 -0.0543,-0.16495 -0.0647,0 -0.10817,-0.0359 -0.0966,-0.0797 0.0395,-0.14952 -0.14137,-0.558 -0.24706,-0.558 -0.058,0 -0.0785,-0.0436 -0.0456,-0.0967 0.0844,-0.13654 -0.0501,-0.44551 -0.16341,-0.37546 -0.0517,0.0319 -0.0679,-0.01 -0.0359,-0.0932 0.0319,-0.0832 -0.0187,-0.18069 -0.11247,-0.21669 -0.0938,-0.036 -0.16262,-0.12585 -0.15295,-0.1997 0.0398,-0.30446 -0.0143,-0.51464 -0.11654,-0.45151 -0.0599,0.037 -0.10206,0.0279 -0.0937,-0.0203 0.0446,-0.25721 -0.0349,-0.47554 -0.24909,-0.68367 -0.13152,-0.12779 -0.17935,-0.19857 -0.10629,-0.15731 0.17307,0.0978 0.17248,0.0952 -0.11441,-0.49718 -0.13494,-0.27861 -0.28566,-0.46992 -0.33493,-0.42516 -0.0493,0.0448 -0.0578,0.0259 -0.0191,-0.0419 0.098,-0.17133 -0.0343,-0.4752 -0.1703,-0.39113 -0.0614,0.0379 -0.0809,0.0192 -0.0433,-0.0415 0.0922,-0.14919 -0.13778,-0.78762 -0.25716,-0.71385 -0.0521,0.0322 -0.0632,-0.0235 -0.0248,-0.12385 0.0512,-0.13353 0.0322,-0.15909 -0.0708,-0.0954 -0.0894,0.0553 -0.11526,0.0457 -0.0709,-0.0261 0.0919,-0.14868 -0.0324,-0.46656 -0.15325,-0.39189 -0.0517,0.0319 -0.0655,-0.0161 -0.0306,-0.1069 0.0348,-0.0907 0.0119,-0.16494 -0.051,-0.16494 -0.063,0 -0.0838,-0.0795 -0.0464,-0.17687 0.0493,-0.12842 0.0293,-0.15303 -0.073,-0.0899 -0.0884,0.0547 -0.11522,0.0457 -0.0721,-0.0241 0.1064,-0.17215 -0.34123,-1.09083 -0.5315,-1.09083 -0.11709,0 -0.14948,-0.0665 -0.10858,-0.22283 0.074,-0.28312 -0.0216,-0.54102 -0.16733,-0.45099 -0.0642,0.0396 -0.0802,0.0181 -0.0376,-0.0508 0.0915,-0.14799 -0.29017,-1.01037 -0.39898,-0.90156 -0.0432,0.0432 -0.0494,0.003 -0.0136,-0.0905 0.0357,-0.093 -0.0131,-0.24697 -0.10825,-0.3422 -0.0952,-0.0952 -0.14829,-0.17312 -0.11793,-0.17312 0.0304,0 0.005,-0.14345 -0.0559,-0.31873 -0.0611,-0.17532 -0.15373,-0.2924 -0.20583,-0.26021 -0.0521,0.0322 -0.0686,-0.01 -0.0367,-0.0927 0.0319,-0.0832 -0.0182,-0.22746 -0.1113,-0.32059 -0.0931,-0.0931 -0.16763,-0.19495 -0.16554,-0.22628 0.0186,-0.27945 -0.0123,-0.37837 -0.10127,-0.3234 -0.0624,0.0386 -0.0767,-0.009 -0.0351,-0.11745 0.0512,-0.13354 0.0323,-0.15908 -0.0708,-0.0954 -0.0894,0.0552 -0.11525,0.0457 -0.0709,-0.0261 0.0998,-0.16145 -0.0374,-0.4635 -0.17254,-0.37998 -0.071,0.0438 -0.0879,0.004 -0.0453,-0.1069 0.0373,-0.0973 0.0231,-0.17686 -0.0317,-0.17686 -0.0548,0 -0.0691,-0.0795 -0.0317,-0.17686 0.0493,-0.12842 0.0293,-0.15304 -0.0729,-0.0899 -0.0894,0.0552 -0.11525,0.0457 -0.0709,-0.0261 0.0385,-0.0622 0.0392,-0.19319 8.9e-4,-0.29105 -0.055,-0.14319 -0.0876,-0.15024 -0.16674,-0.0362 -0.0684,0.0984 -0.079,0.0721 -0.0347,-0.0861 0.0379,-0.1356 0,-0.29195 -0.0943,-0.38593 -0.0869,-0.0869 -0.12838,-0.18759 -0.0922,-0.22377 0.0362,-0.0362 0.007,-0.0658 -0.0645,-0.0658 -0.0716,0 -0.10339,-0.0436 -0.0705,-0.0967 0.0844,-0.13653 -0.0501,-0.44551 -0.16341,-0.37546 -0.0517,0.0319 -0.0688,-0.007 -0.0382,-0.0873 0.0716,-0.18651 -0.21071,-0.73797 -0.32486,-0.63465 -0.0475,0.0429 -0.0545,0.0226 -0.0158,-0.0452 0.0911,-0.15924 -0.0298,-0.47791 -0.15264,-0.40203 -0.0517,0.0319 -0.0655,-0.0161 -0.0306,-0.1069 0.0348,-0.0907 0.0206,-0.16495 -0.0317,-0.16495 -0.0523,0 -0.10254,-0.0995 -0.11169,-0.22107 -0.009,-0.12159 -0.077,-0.29381 -0.15082,-0.38273 -0.0738,-0.0889 -0.14485,-0.23444 -0.1579,-0.3234 -0.0131,-0.089 -0.0821,-0.30261 -0.15339,-0.47475 -0.0982,-0.23707 -0.15402,-0.27902 -0.2301,-0.17295 -0.0721,0.10059 -0.0821,0.0838 -0.0354,-0.0595 0.0405,-0.12422 -0.006,-0.25753 -0.12281,-0.35331 -0.10332,-0.0846 -0.12807,-0.12353 -0.055,-0.0865 0.21082,0.10678 0.15426,-0.0923 -0.0843,-0.29646 -0.1194,-0.10224 -0.18575,-0.23659 -0.14745,-0.29858 0.0977,-0.1581 -0.27885,-0.95354 -0.41235,-0.87103 -0.0668,0.0412 -0.0831,-8.9e-4 -0.0417,-0.10919 0.0373,-0.0973 0.0187,-0.17685 -0.0413,-0.17685 -0.0601,0 -0.0844,-0.0401 -0.0541,-0.0892 0.0764,-0.1236 -0.678,-1.84505 -0.88429,-2.01787 -0.0924,-0.0774 -0.10822,-0.11045 -0.0352,-0.0734 0.073,0.037 0.13285,0.0422 0.13285,0.0115 0,-0.14629 -0.36932,-0.80702 -0.4511,-0.80702 -0.0511,0 -0.066,-0.0436 -0.0331,-0.0967 0.0844,-0.13653 -0.0501,-0.44552 -0.16341,-0.37546 -0.0517,0.0319 -0.0624,-0.0241 -0.024,-0.12434 0.0429,-0.11193 0.0279,-0.15635 -0.039,-0.11503 -0.0675,0.0418 -0.09,-0.032 -0.0591,-0.1938 0.0329,-0.1723 -0.006,-0.28272 -0.11493,-0.32444 -0.0979,-0.0376 -0.13866,-0.13152 -0.10035,-0.23133 0.0427,-0.11125 0.0224,-0.14209 -0.0599,-0.0912 -0.11425,0.0706 -0.17467,-0.0629 -0.1328,-0.29355 0.0273,-0.14983 -0.21402,-0.8113 -0.29588,-0.8113 -0.0414,0 -0.0818,-0.0837 -0.0898,-0.186 -0.008,-0.10231 -0.0357,-0.31876 -0.0616,-0.48103 -0.0286,-0.17894 0.009,-0.32644 0.0957,-0.37491 0.19756,-0.11055 0.79101,-1.36263 0.817,-1.7237 0.0118,-0.16278 0.0514,-0.27748 0.0881,-0.25489 0.0887,0.0545 0.21453,-0.58827 0.13907,-0.71041 -0.0324,-0.0525 -0.004,-0.0954 0.063,-0.0954 0.0823,0 0.10171,-0.14674 0.0598,-0.45172 -0.0441,-0.32029 -0.0335,-0.38986 0.0363,-0.23914 0.0688,0.1486 0.0962,-0.0593 0.0908,-0.69086 -0.006,-0.6709 -0.0279,-0.80768 -0.0865,-0.53144 -0.0598,0.28182 -0.0684,0.23331 -0.0354,-0.20005 0.0459,-0.60335 -0.14432,-1.81938 -0.28446,-1.81938 -0.0454,0 -0.0556,-0.10314 -0.0225,-0.22919 0.0367,-0.14046 0.0183,-0.20343 -0.0477,-0.16264 -0.0659,0.0407 -0.0884,-0.0346 -0.0578,-0.19419 0.0274,-0.1434 0.0141,-0.34522 -0.0296,-0.44851 -0.0436,-0.10327 -0.0711,-0.37909 -0.061,-0.61291 0.0145,-0.33541 -0.006,-0.3915 -0.10069,-0.26572 -0.0942,0.12612 -0.1056,0.0978 -0.0547,-0.1355 0.0901,-0.41237 -0.0533,-1.72556 -0.16885,-1.54631 -0.0546,0.0847 -0.0654,0.009 -0.0273,-0.19055 0.086,-0.44915 -0.51914,-2.97005 -0.68795,-2.86572 -0.0416,0.0257 -0.0826,-0.0448 -0.091,-0.15671 -0.0213,-0.28222 -0.55936,-0.96405 -0.69478,-0.88034 -0.061,0.0377 -0.0801,0.0187 -0.0425,-0.0421 0.0683,-0.11047 -0.13166,-0.34491 -0.26584,-0.31172 -0.039,0.01 -0.1107,-0.026 -0.15943,-0.0792 -0.0515,-0.0562 -0.033,-0.0647 0.0444,-0.0203 0.152,0.0875 0.1793,-0.056 0.0395,-0.20712 -0.0514,-0.0556 -0.15091,-0.28076 -0.22115,-0.50052 -0.0702,-0.21976 -0.1597,-0.37976 -0.19883,-0.35559 -0.0391,0.0242 -0.0758,-0.1308 -0.0815,-0.34444 -0.0207,-0.77786 -0.18236,-1.82329 -0.28191,-1.82329 -0.0602,0 -0.0735,-0.18542 -0.0323,-0.45172 0.0384,-0.24844 0.0793,-0.60259 0.0909,-0.78699 0.0116,-0.18441 0.057,-0.31312 0.10083,-0.28602 0.0438,0.0271 0.0797,-0.0139 0.0797,-0.091 0,-0.0771 0.16686,-0.52235 0.37077,-0.98942 0.30491,-0.69836 0.36254,-0.9436 0.32437,-1.38063 -0.0399,-0.45661 -0.0339,-0.47906 0.043,-0.15943 0.0565,0.23484 0.0756,-0.21584 0.052,-1.2223 -0.0403,-1.7179 -0.11743,-2.29517 -0.27442,-2.05578 -0.0562,0.0857 -0.0653,-0.0442 -0.0227,-0.32535 0.051,-0.33729 0.037,-0.44713 -0.05,-0.3933 -0.0855,0.0529 -0.10096,-0.0249 -0.0527,-0.26597 0.0464,-0.23234 0.0314,-0.318 -0.0472,-0.26937 -0.0801,0.0495 -0.0988,-0.11599 -0.0612,-0.54148 0.0358,-0.40481 0.0197,-0.56389 -0.0473,-0.46873 -0.067,0.0951 -0.0887,-0.12136 -0.064,-0.63772 0.0206,-0.42998 0.003,-0.67137 -0.04,-0.53644 -0.0426,0.1349 -0.0774,-0.73341 -0.0774,-1.92959 0,-1.19619 0.0318,-2.15525 0.0706,-2.13123 0.0388,0.024 0.0882,-0.009 0.10962,-0.0733 0.0488,-0.14648 0.816,-0.29878 1.53571,-0.30487 0.58173,-0.004 1.7272,0.30537 2.42921,0.65805 0.23382,0.11747 0.83169,0.46171 1.32858,0.76495 1.81829,1.10968 3.2092,1.58823 5.4206,1.86497 1.17936,0.14757 4.35625,0.1437 5.32432,-0.006 2.16052,-0.33522 3.4246,-1.26172 3.94633,-2.89248 0.30176,-0.94316 0.37502,-2.85777 0.15156,-3.96058 -0.24544,-1.21135 -0.48857,-1.97594 -0.60534,-1.90377 -0.0556,0.0344 -0.0936,-0.024 -0.0844,-0.1297 0.034,-0.39229 -0.0174,-0.57653 -0.1397,-0.50089 -0.0723,0.0446 -0.094,0.0293 -0.0528,-0.0372 0.0844,-0.13653 -0.0279,-0.46939 -0.13579,-0.40271 -0.042,0.026 -0.0729,-0.058 -0.0686,-0.18661 0.004,-0.1407 -0.0482,-0.22221 -0.13288,-0.20464 -0.0805,0.0167 -0.10926,-0.0217 -0.0672,-0.0899 0.0973,-0.15747 -0.16587,-0.64164 -0.30279,-0.55703 -0.0589,0.0364 -0.074,0.0131 -0.0337,-0.0522 0.10444,-0.169 -0.56242,-1.31327 -0.71463,-1.22621 -0.0675,0.0386 -0.0887,0.0326 -0.0472,-0.0135 0.11408,-0.12645 -0.22429,-0.71353 -0.36214,-0.62833 -0.0715,0.0442 -0.0883,0.0247 -0.0425,-0.0494 0.0898,-0.14521 -0.20261,-0.59907 -0.39036,-0.60601 -0.072,-0.003 -0.11801,-0.0649 -0.10236,-0.1385 0.0337,-0.15827 -1.57083,-2.27891 -2.10306,-2.77954 -0.10969,-0.10318 -1.13617,-1.55001 -1.58353,-2.23202 -0.24926,-0.37997 -0.49269,-0.69086 -0.54096,-0.69086 -0.0483,0 -0.12764,-0.0435 -0.17635,-0.0968 -0.0515,-0.0562 -0.0329,-0.0647 0.0443,-0.0203 0.19132,0.1101 0.16355,-0.023 -0.0657,-0.3143 -0.10916,-0.13877 -0.2364,-0.21805 -0.28276,-0.17619 -0.0464,0.0419 -0.0517,0.0191 -0.0119,-0.0504 0.09,-0.15698 -0.30657,-0.83009 -0.48905,-0.83009 -0.0735,0 -0.13373,-0.0718 -0.13381,-0.15943 0,-0.2095 -0.81462,-1.59614 -0.90476,-1.54042 -0.0383,0.0237 -0.0696,-0.022 -0.0696,-0.10137 0,-0.22315 -0.68274,-1.23457 -0.78904,-1.16888 -0.0518,0.0321 -0.0628,-0.0238 -0.0242,-0.12414 0.0512,-0.13354 0.0322,-0.15908 -0.0708,-0.0954 -0.0944,0.0583 -0.11542,0.046 -0.0637,-0.0377 0.10138,-0.16404 -0.34791,-0.88667 -0.49483,-0.79587 -0.0672,0.0415 -0.0827,0.02 -0.0378,-0.0525 0.13051,-0.21117 -0.0419,-0.36126 -0.23847,-0.20759 -0.15645,0.12232 -0.16058,0.11764 -0.0362,-0.0412 0.10615,-0.13565 0.1117,-0.23253 0.0228,-0.39859 -0.0646,-0.12063 -0.14246,-0.21935 -0.17307,-0.21935 -0.0306,0 -0.0216,0.0552 0.0202,0.12271 0.0459,0.0743 0.0293,0.0939 -0.0422,0.0497 -0.0649,-0.0402 -0.0881,-0.15104 -0.0515,-0.24645 0.0481,-0.12525 0.0274,-0.14928 -0.0742,-0.0864 -0.094,0.0581 -0.11539,0.046 -0.0645,-0.0365 0.042,-0.0679 -0.0167,-0.25464 -0.13056,-0.415 -0.42217,-0.59506 -0.68013,-1.1341 -0.56164,-1.1736 0.18366,-0.0612 0.1374,-0.21201 -0.06,-0.19559 -0.13017,0.0109 -0.2329,-0.16899 -0.38621,-0.67609 -0.11487,-0.37998 -0.23209,-0.7626 -0.26049,-0.8503 -0.0588,-0.18167 -0.0706,-0.27754 -0.22277,-1.80686 -0.0611,-0.6138 -0.14381,-1.73624 -0.18393,-2.4943 -0.0932,-1.76149 -0.50467,-3.21971 -0.9575,-3.39347 -0.09,-0.0345 -0.13366,-0.11109 -0.0971,-0.17017 0.11814,-0.19116 -0.90417,-1.56648 -1.79544,-2.41539 -1.41487,-1.34761 -4.37882,-3.43073 -4.88141,-3.43073 -0.0884,0 -0.17936,-0.056 -0.20218,-0.12451 -0.0604,-0.18114 -2.42856,-0.1787 -3.16481,0.004 -0.32151,0.0794 -0.92453,0.30518 -1.34004,0.50158 -1.60124,0.75693 -1.97294,1.98474 -1.44545,4.77456 0.38196,2.02004 0.47451,3.03162 0.34638,3.78579 -0.23363,1.37518 -0.60277,2.57712 -1.01366,3.30051 -0.74953,1.31957 -2.72286,3.31225 -4.83756,4.885 -1.09596,0.8151 -1.43815,0.97717 -1.9252,0.91183 -0.24841,-0.0333 -0.42459,-0.007 -0.46002,0.068 -0.0316,0.0672 -0.032,0.0184 -6.6e-4,-0.10815 0.0311,-0.12662 0.006,-0.26097 -0.0542,-0.29856 -0.16921,-0.10458 -0.13274,-0.77794 0.10462,-1.93212 0.52823,-2.5685 0.64218,-3.23412 0.71594,-4.18202 0.10884,-1.39892 8.9e-4,-2.46356 -0.34987,-3.45949 -0.16384,-0.4648 -0.33803,-0.86115 -0.38711,-0.88076 -0.0491,-0.0196 -0.0635,-0.0773 -0.0321,-0.12818 0.0314,-0.051 -0.008,-0.25008 -0.0885,-0.44264 -0.0802,-0.19255 -0.12549,-0.40989 -0.10081,-0.48296 0.0247,-0.073 -0.01,-0.13286 -0.0765,-0.13286 -0.0668,0 -0.0971,-0.0393 -0.0674,-0.0874 0.0297,-0.0481 0.008,-0.39483 -0.0479,-0.77058 -0.056,-0.37575 -0.19517,-1.33577 -0.30908,-2.13339 -0.2674,-1.87216 -0.38733,-2.34964 -0.77767,-3.0962 -0.45822,-0.87639 -1.66876,-2.06923 -2.05886,-2.02877 -0.0772,0.008 -0.1148,-0.027 -0.0834,-0.0778 0.0314,-0.0508 -0.21105,-0.26387 -0.53876,-0.47351 -1.50165,-0.9606 -3.00936,-1.36279 -4.17851,-1.11468 -0.35841,0.0761 -0.62802,0.1765 -0.59915,0.22321 0.0289,0.0467 -0.004,0.11953 -0.072,0.16184 -0.0777,0.048 -0.096,0.0308 -0.0486,-0.0459 0.0937,-0.15166 0.0722,-0.15182 -0.35624,-0.003 -0.24396,0.0851 -0.30403,0.14554 -0.20519,0.20663 0.15586,0.0963 0.18215,0.0946 -2.24501,0.14474 -1.48424,0.0306 -1.72641,0.0629 -2.4446,0.32606 -2.95756,1.08358 -5.23275,4.37776 -6.52865,9.45269 -0.64489,2.52547 -0.81821,4.03539 -0.6674,5.81452 0.11253,1.32776 0.4832,2.50598 1.35509,4.30738 1.13077,2.3363 1.37199,3.17294 1.46733,5.08946 l 0.069,1.38788 -0.31887,0.0237 c -1.40381,0.10423 -3.84717,1.5099 -5.68035,3.26791 -1.67651,1.60775 -4.28298,5.00397 -5.53996,7.21848 -0.85264,1.50217 -1.11427,2.00968 -1.44409,2.80138 -0.43372,1.04104 -0.73579,2.36386 -0.8287,3.62895 -0.1946,2.65006 -0.49164,4.08851 -1.39922,6.77582 -1.15577,3.42213 -1.80631,4.68197 -3.12321,6.04841 -0.99533,1.03276 -2.09029,2.33211 -2.30054,2.72997 -0.33966,0.64269 -0.68099,1.97843 -0.78366,3.06664 -0.0784,0.831 -0.20775,1.41704 -0.48085,2.17887 -1.24209,3.46484 -1.37151,4.17065 -1.28258,6.99416 0.0331,1.05224 0.0874,2.08056 0.12047,2.28516 0.057,0.35198 -0.036,0.49503 -1.72674,2.65715 -3.521847,4.50374 -5.950683,7.53544 -8.713522,10.8763 -1.064115,1.28676 -1.90953,2.38039 -1.878671,2.4303 0.03086,0.05 0.0118,0.0776 -0.04241,0.0616 -0.05414,-0.016 -0.684171,0.6404 -1.400038,1.4588 -3.656081,4.17976 -3.893426,4.35968 -5.74478,4.3548 -1.001515,-0.003 -1.186877,-0.0348 -1.806865,-0.31363 -2.295897,-1.03246 -4.545479,-3.31355 -5.872033,-5.95433 -0.936229,-1.86374 -1.262662,-3.89652 -1.048373,-6.52842 0.148958,-1.82945 0.532397,-3.93356 1.016861,-5.57997 0.203967,-0.69313 0.347939,-1.29731 0.319943,-1.3426 -0.02796,-0.0453 -0.009,-0.0984 0.04221,-0.118 0.05124,-0.0196 0.247106,-0.48983 0.435331,-1.04493 0.84798,-2.50099 2.152725,-5.40428 5.077579,-11.29857 1.009442,-2.03426 1.835335,-3.76806 1.835335,-3.85289 0,-0.0848 0.04458,-0.15421 0.09913,-0.15421 0.05455,0 0.130293,-0.0982 0.168393,-0.21827 0.03812,-0.12005 0.322626,-0.75378 0.63228,-1.4083 1.3255,-2.80168 2.299302,-5.66316 2.738048,-8.0455 0.18651,-1.01275 0.226147,-1.65046 0.231278,-3.72002 0.0066,-2.60674 -0.05269,-3.20434 -0.536486,-5.4206 -0.28859,-1.32196 -1.060086,-3.75001 -1.478447,-4.65293 -0.142949,-0.30851 -0.259895,-0.59117 -0.259895,-0.62814 0,-0.11413 -0.966447,-2.05431 -1.525462,-3.06241 -0.71832,-1.29537 -2.281146,-3.66688 -2.416484,-3.66688 -0.06021,0 -0.08767,-0.0359 -0.061,-0.0797 0.06677,-0.1098 -1.622108,-2.2605 -2.867978,-3.65224 -0.565155,-0.63132 -1.510289,-1.59238 -2.100301,-2.13569 -2.905484,-2.67548 -6.701581,-6.47014 -9.225617,-9.22212 -7.447554,-8.12013 -11.161105,-14.51897 -12.24577,-21.100748 -0.774736,-4.701114 -0.336186,-11.129097 1.210091,-17.736975 0.413817,-1.768396 1.308544,-4.780627 1.645482,-5.539741 0.07784,-0.175376 0.176808,-0.438432 0.219933,-0.584576 0.04314,-0.146135 0.393109,-0.983148 0.777736,-1.860002 1.689121,-3.850821 3.77302,-7.025967 6.425555,-9.79034 3.020959,-3.14833 6.204869,-5.428321 10.598054,-7.58923 2.014504,-0.990883 3.060173,-1.367603 5.420598,-1.952847 14.473476,-3.588534 29.231625,-3.949557 43.764455,-1.070598 24.26486,4.806876 45.68814,18.313954 60.68197,38.259115 3.52713,4.691892 6.78031,10.008961 9.49438,15.517802 0.80641,1.63682 1.66523,3.45432 1.90851,4.03889 0.24328,0.58458 0.50736,1.20635 0.58686,1.38172 0.31288,0.69019 1.4852,3.68447 1.93501,4.94232 1.23686,3.45874 2.16863,6.57426 3.05162,10.20349 1.34299,5.51989 2.14223,10.6844 2.63178,17.00582 0.16738,2.16143 0.16253,11.21543 -0.007,13.39208 -0.31787,4.07698 -0.7481,7.62943 -1.28721,10.62863 -0.12085,0.67226 -0.26417,1.48535 -0.31849,1.80688 -0.25216,1.49245 -1.40822,6.2676 -2.07139,8.55605 -2.42718,8.37556 -5.99636,16.51932 -10.50432,23.96757 -2.98863,4.93795 -6.586,9.83555 -10.48073,14.26894 -0.89919,1.02354 -1.24732,1.35034 -1.42273,1.33548 -0.12774,-0.0108 -0.49529,-0.0352 -0.81681,-0.0541 z"
       id="path376" />
    <path
       style="fill:#518830;stroke-width:0.106287;fill-opacity:1"
       d="m 47.335467,230.91968 c -1.304699,-0.90637 -5.107099,-3.80986 -6.37718,-4.86956 -4.701891,-3.92309 -9.300355,-8.50333 -13.098713,-13.04673 C 16.758604,199.72496 9.2306546,183.58445 6.2105137,166.58617 5.147441,160.60284 4.6889744,155.34006 4.6873854,149.10208 4.6860454,143.0539 5.0756722,138.296 6.0502195,132.46825 8.9310125,115.24122 16.412762,98.903504 27.612428,85.383395 c 3.702201,-4.469261 8.488309,-9.27072 13.003741,-13.045467 3.911966,-3.270272 8.112428,-6.25417 12.565008,-8.92585 2.546743,-1.528121 3.507448,-2.043319 3.507448,-1.880933 0,0.198585 -0.74081,1.662865 -0.913991,1.8066 -0.08187,0.06795 -0.148865,0.1714 -0.148865,0.229885 0,0.0585 -0.227189,0.419782 -0.504856,0.802857 -0.277681,0.383075 -0.648359,0.899852 -0.82373,1.14838 -0.175371,0.248528 -0.945318,1.28038 -1.710978,2.293001 -1.741638,2.30336 -3.409074,4.72226 -3.980073,5.773742 -0.09523,0.175367 -0.426051,0.797147 -0.735157,1.381713 -0.309107,0.584576 -0.666212,1.254185 -0.793571,1.488017 -0.127352,0.233823 -0.342933,0.688207 -0.479049,1.009718 -0.136117,0.32152 -0.36498,0.841832 -0.508589,1.156271 -0.928309,2.032591 -1.906358,5.471505 -2.361494,8.303212 -0.724513,4.507715 -0.488289,9.609568 0.683657,14.765809 0.20495,0.90168 0.372631,1.6578 0.372631,1.68028 0,0.0224 0.04729,0.0116 0.105073,-0.0241 0.05949,-0.0367 0.0785,0.004 0.04386,0.0945 -0.153607,0.40031 1.829234,6.1021 2.829509,8.13639 0.290956,0.59175 0.529007,1.10083 0.529007,1.13132 0,0.0872 1.690163,3.44681 1.845841,3.66907 0.07673,0.10957 0.173629,0.1651 0.215324,0.1234 0.04168,-0.0417 0.05112,-0.005 0.02084,0.0804 -0.07047,0.20032 1.152147,2.29149 1.317064,2.2527 0.0683,-0.016 0.09189,0.023 0.05243,0.0868 -0.08269,0.1338 0.244258,0.68494 1.998901,3.36961 0.697097,1.06658 1.304969,1.91605 1.350825,1.88771 0.04583,-0.0283 0.07682,0.0316 0.06881,0.13333 -0.008,0.10225 0.04834,0.17181 0.126184,0.15565 0.07741,-0.0161 0.111299,0.0184 0.0753,0.0767 -0.09144,0.14795 0.260805,0.65678 0.396565,0.57288 0.06352,-0.0393 0.07952,-0.0176 0.03739,0.0506 -0.08629,0.13962 0.654585,1.25602 0.804947,1.21296 0.05612,-0.016 0.07255,0.0184 0.03654,0.0767 -0.07987,0.12922 0.252349,0.66201 0.368146,0.59045 0.04544,-0.0282 0.07609,0.0321 0.06808,0.13376 -0.008,0.10224 0.04834,0.17181 0.126177,0.15565 0.07742,-0.0161 0.111307,0.0184 0.07531,0.0767 -0.07988,0.12922 0.252342,0.662 0.368139,0.59044 0.04544,-0.028 0.0761,0.0322 0.06808,0.13378 -0.008,0.10166 0.03957,0.17477 0.105786,0.16245 0.06619,-0.0124 0.11401,0.0594 0.106287,0.15942 -0.0077,0.10001 0.04399,0.17045 0.11496,0.15654 0.07097,-0.0139 0.106497,0.0339 0.07895,0.10629 -0.06463,0.16975 0.637794,1.16091 0.750498,1.05902 0.04689,-0.0424 0.05329,-0.0212 0.01418,0.0471 -0.08607,0.15033 0.55918,1.22261 0.687851,1.14309 0.04992,-0.0308 0.06582,0.009 0.03522,0.0887 -0.03053,0.0796 0.05507,0.30929 0.190243,0.51039 0.522597,0.77733 1.27597,2.14078 2.12786,3.85096 0.488059,0.97981 0.92308,1.74579 0.9667,1.70217 0.04359,-0.0436 0.05203,-0.008 0.01873,0.0787 -0.0333,0.0868 0.06424,0.46803 0.216755,0.84707 1.488063,3.69721 2.076413,6.80513 2.011774,10.6269 -0.04926,2.91179 -0.531797,5.85977 -1.269989,7.7589 -0.236039,0.60723 -0.596535,1.51141 -0.783967,1.96629 -0.29316,0.71148 -1.235173,2.52172 -1.648509,3.16785 -0.214427,0.33519 -0.389864,0.63578 -0.389864,0.66798 0,0.086 -1.329805,1.97312 -1.569584,2.22734 -0.112803,0.11958 -0.224419,0.27542 -0.248042,0.3463 -0.02361,0.0709 -0.545041,0.72422 -1.158671,1.45185 -1.409422,1.67119 -4.819703,5.058 -8.183765,8.12744 -6.985692,6.37389 -9.202218,8.86043 -11.328556,12.70856 -1.804194,3.26516 -2.598371,7.61994 -2.277531,12.48864 0.15697,2.38199 0.501169,4.61383 1.007536,6.53291 0.716671,2.71613 1.83478,6.06044 2.276488,6.8091 0.104533,0.17716 0.224802,0.46054 0.267261,0.62971 0.120499,0.4801 2.498665,5.18697 3.278294,6.48841 0.690626,1.15286 1.496701,2.30466 1.579272,2.25663 0.02328,-0.0135 0.03126,-0.006 0.01781,0.0177 -0.05415,0.0932 0.43692,0.84876 0.518765,0.79818 0.04834,-0.0298 0.0645,0.008 0.03594,0.0841 -0.02863,0.0761 0.211109,0.46757 0.532654,0.86994 0.321538,0.40238 0.585435,0.7611 0.586425,0.79715 6.6e-4,0.0361 0.204257,0.28159 0.451719,0.5456 0.247449,0.26404 0.629662,0.78229 0.849358,1.15168 0.340368,0.57228 0.996753,1.47759 1.821499,2.5123 l 0.201514,0.25283 -0.880699,0.96359 c -0.484378,0.52999 -0.909863,0.96147 -0.945515,0.95886 -0.03562,-0.003 -0.280042,-0.15425 -0.543101,-0.337 z"
       id="path298" />
    <path
       style="fill:#094086;stroke-width:0.106287;fill-opacity:1"
       d="m 79.692297,245.80217 c -2.478887,-0.64082 -6.068245,-1.73836 -8.281889,-2.53245 -2.973151,-1.06652 -3.561712,-1.29537 -3.561712,-1.38487 0,-0.066 0.661852,-0.90275 1.796925,-2.27164 0.09316,-0.11234 0.109591,-0.16931 0.03654,-0.12658 -0.07306,0.0427 -0.132852,0.0271 -0.132852,-0.0349 0,-0.0619 0.06776,-0.11255 0.150606,-0.11255 0.149953,0 0.77546,-0.76232 2.339175,-2.85079 1.780926,-2.37856 4.221257,-5.96702 4.143454,-6.09288 -0.0308,-0.0499 0.01972,-0.0907 0.112302,-0.0907 0.09259,0 0.21101,-0.11224 0.263164,-0.24942 0.05217,-0.13719 0.533783,-0.9585 1.070282,-1.82513 1.056795,-1.70712 2.254422,-3.87649 2.1415,-3.87911 -0.03858,-6.6e-4 -0.01635,-0.0367 0.0494,-0.0797 0.187308,-0.12235 1.101121,-2.00964 1.017831,-2.10207 -0.04095,-0.0455 -0.02144,-0.0525 0.04339,-0.0155 0.138042,0.0787 0.495623,-0.75059 0.394309,-0.9145 -0.03673,-0.0594 -0.01887,-0.0785 0.03971,-0.0423 0.05856,0.0362 0.230446,-0.20753 0.382021,-0.54157 0.151563,-0.33407 0.560639,-1.23283 0.909072,-1.99728 0.949828,-2.08399 1.859314,-4.22407 1.859314,-4.37512 0,-0.0737 0.04498,-0.13386 0.09995,-0.13386 0.05494,0 0.07146,-0.0742 0.0366,-0.16495 -0.03627,-0.0946 -0.01846,-0.13726 0.04175,-0.10003 0.09693,0.0599 0.147473,-0.11549 0.132443,-0.45955 -0.0033,-0.077 0.02044,-0.11341 0.05283,-0.081 0.05401,0.054 0.674627,-1.38533 1.502202,-3.48385 0.181115,-0.45925 0.302881,-0.87776 0.270604,-0.93 -0.03231,-0.0522 -0.01536,-0.095 0.03766,-0.095 0.09034,0 0.530306,-1.09296 1.283567,-3.1886 0.554281,-1.54206 1.089514,-3.30958 1.279117,-4.22406 0.173128,-0.83504 0.216946,-0.91712 0.935899,-1.75373 0.414839,-0.48271 1.38969,-1.61902 2.166337,-2.52511 5.000959,-5.83446 7.865542,-9.03227 9.570132,-10.68341 1.7001,-1.64678 7.52846,-6.87956 10.69398,-9.60123 1.01661,-0.87406 1.53776,-1.39591 1.5867,-1.58881 0.0867,-0.34201 0.0909,-0.80574 0.011,-1.24384 -0.20242,-1.11043 -0.21243,-1.43588 -0.0517,-1.68113 0.32126,-0.49031 1.53336,-1.96148 3.16852,-3.84575 0.91313,-1.05224 2.06152,-2.37677 2.55199,-2.94339 0.49045,-0.56663 0.91604,-1.03297 0.94573,-1.03629 0.10511,-0.0119 0.94576,1.33472 1.37796,2.20712 0.7196,1.45258 1.06642,2.54065 1.48113,4.64677 0.43307,2.1993 0.48266,1.89934 -0.6234,3.7704 -0.53507,0.90514 -1.0164,1.71747 -1.06965,1.80515 -0.0532,0.0876 -0.61763,1.04427 -1.25425,2.12573 -0.63661,1.08146 -1.79286,3.04244 -2.56944,4.35774 -0.77656,1.31529 -1.74789,2.96539 -2.15849,3.66687 -0.41059,0.70149 -1.01818,1.72981 -1.35017,2.28517 -0.332,0.55535 -0.88186,1.488 -1.22191,2.07258 -0.34004,0.58456 -1.12767,1.92377 -1.75027,2.976 -0.62261,1.05224 -1.77017,3.01323 -2.55016,4.35775 -0.77998,1.34453 -1.60731,2.75548 -1.83851,3.13545 -0.42337,0.69584 -1.74449,2.9358 -3.35377,5.68632 -0.98487,1.6833 -0.94996,1.62379 -1.8389,3.13545 -0.36095,0.61381 -0.73833,1.25949 -0.83863,1.43486 -0.10027,0.17537 -0.76962,1.32326 -1.487453,2.55087 -0.717832,1.22762 -1.568357,2.68639 -1.890054,3.24174 -0.321707,0.55534 -0.991562,1.70324 -1.48859,2.55088 -0.497021,0.84763 -0.985627,1.68463 -1.08578,1.86001 -0.100161,0.17537 -0.338956,0.58191 -0.530663,0.90342 -0.191713,0.32153 -0.431334,0.72807 -0.53251,0.90344 -0.428873,0.74339 -4.315731,7.41448 -4.830295,8.29034 -0.309093,0.52612 -0.967101,1.6501 -1.462236,2.49773 -0.495135,0.84763 -1.347778,2.30641 -1.894757,3.24173 -0.546992,0.93532 -1.082357,1.86798 -1.18972,2.07259 -0.107342,0.2046 -0.337643,0.60268 -0.511754,0.88464 -0.174117,0.28193 -0.284606,0.56435 -0.245549,0.62756 0.03905,0.0632 0.02619,0.0872 -0.02869,0.0533 -0.05488,-0.0339 -0.504646,0.63275 -0.999569,1.48144 -1.332576,2.28506 -1.381202,2.37364 -1.303089,2.37364 0.0395,0 -0.01635,0.0645 -0.12412,0.14332 -0.107797,0.0788 -0.16687,0.19042 -0.131283,0.24799 0.102607,0.16602 -0.107704,0.13019 -1.793284,-0.30552 z"
       id="path250" />
  </g>
</svg>
